<?xml version="1.0" encoding="utf-8"?>
<!-- Generator: Adobe Illustrator 21.0.0, SVG Export Plug-In . SVG Version: 6.00 Build 0)  -->
<svg version="1.1" id="Layer_1" xmlns="http://www.w3.org/2000/svg" xmlns:xlink="http://www.w3.org/1999/xlink" x="0px" y="0px"
	 viewBox="0 0 100 125" style="enable-background:new 0 0 100 125;" xml:space="preserve">
<path d="M45.6,30.1c-3.8,0-6.9,3.1-6.9,6.9s3.1,6.9,6.9,6.9s6.9-3.1,6.9-6.9S49.5,30.1,45.6,30.1z"/>
<path d="M52,46.5H39.2c-3.3,0-6,2.7-6,6v5.6h24.9v-5.6C58.1,49.2,55.4,46.5,52,46.5z"/>
<path d="M45.6,11.2c-18.2,0-33.1,14.8-33.1,33.1c0,18.2,14.8,33.1,33.1,33.1c5.9,0,11.8-1.6,17-4.7l1.2-0.7L79,87
	c1,1,2.3,1.6,3.8,1.6c1.4,0,2.8-0.6,3.8-1.6s1.6-2.3,1.6-3.8s-0.6-2.7-1.6-3.8L71.7,64.7l1.3-1.9c3.7-5.5,5.7-11.9,5.7-18.5
	C78.7,26,63.9,11.2,45.6,11.2z M45.6,68.3c-13.3,0-24.1-10.8-24.1-24.1s10.8-24.1,24.1-24.1s24.1,10.8,24.1,24.1
	S58.9,68.3,45.6,68.3z"/>
</svg>
