<?xml version="1.0" encoding="utf-8"?>
<!-- Generator: Adobe Illustrator 21.0.0, SVG Export Plug-In . SVG Version: 6.00 Build 0)  -->
<svg version="1.1" id="Layer_1" xmlns="http://www.w3.org/2000/svg" xmlns:xlink="http://www.w3.org/1999/xlink" x="0px" y="0px"
	 viewBox="0 0 100 125" style="enable-background:new 0 0 100 125;" xml:space="preserve">
<g>
	<path d="M55,43L55,43c-2.6-0.1-5.1-0.9-6.6-1.9l1.1-3.8c1.6,0.9,3.9,1.8,6.3,1.8c2.6,0,4.3-1.3,4.3-3.2c0-1.8-1.4-3-4.4-4.1
		c-4.3-1.5-7-3.5-7-7.3c0-3.5,2.4-6.2,6.5-6.9v-4h3.3v3.8c2.6,0.1,4.3,0.7,5.6,1.3l-1.1,3.7c-1-0.5-2.8-1.4-5.5-1.4
		c-2.8,0-3.9,1.4-3.9,2.8c0,1.7,1.4,2.6,4.9,4c4.6,1.7,6.6,3.9,6.6,7.5c0,3.4-2.4,6.5-6.9,7.2V43h4.1c2.6,0,5,1.1,6.6,2.9
		c4.6-3.6,7.6-9.3,7.6-15.6c0-11-8.9-19.9-19.9-19.9c-11,0-19.9,8.9-19.9,19.9c0,4.8,1.7,9.3,4.6,12.7L55,43L55,43z"/>
	<path d="M87.6,43.7L72.2,59H48.4c-0.5,0-0.9-0.4-0.9-0.9v-0.9c0-0.5,0.4-0.9,0.9-0.9h14c2.4,0,4.3-1.9,4.3-4.3
		c0-2.4-1.9-4.3-4.3-4.3H28.2c-1.2,0-2.3,0.5-3.1,1.3L6.3,67.9C5.4,68.8,5,69.9,5,71c0,0.8,0,13.9,0,14.5c0.1,1,0.5,2.1,1.3,2.8
		c0.8,0.8,2,1.3,3.1,1.3c1.1,0,2.2-0.4,3.1-1.3L30,70.7h41c1.2,0,2.3-0.5,3.1-1.3l19.6-19.6c1.7-1.7,1.7-4.4,0-6.1
		C92,42,89.3,42,87.6,43.7z"/>
</g>
</svg>
