<?xml version="1.0" encoding="utf-8"?>
<!-- Generator: Adobe Illustrator 21.0.0, SVG Export Plug-In . SVG Version: 6.00 Build 0)  -->
<svg version="1.1" id="Layer_1" xmlns="http://www.w3.org/2000/svg" xmlns:xlink="http://www.w3.org/1999/xlink" x="0px" y="0px"
	 viewBox="0 0 150 187.5" style="enable-background:new 0 0 150 187.5;" xml:space="preserve">
<style type="text/css">
	.st0{stroke:#000000;stroke-width:2.5;stroke-miterlimit:10;}
</style>
<g>
	<path class="st0" d="M121,54.6c0.3,0,0.7-0.1,1-0.3l11.2-6.5c1-0.6,1.3-1.8,0.7-2.7c-0.6-1-1.8-1.3-2.7-0.7L120,50.8
		c-1,0.6-1.3,1.8-0.7,2.7C119.6,54.2,120.3,54.6,121,54.6z"/>
	<path class="st0" d="M133.1,86L122,79.6c-1-0.5-2.2-0.2-2.7,0.7s-0.2,2.2,0.7,2.7l11.2,6.4c0.3,0.2,0.7,0.3,1,0.3
		c0.7,0,1.4-0.4,1.7-1C134.4,87.7,134.1,86.5,133.1,86z"/>
	<path class="st0" d="M133,64.9L133,64.9L120.1,65c-1.1,0-2,0.9-2,2s0.9,2,2,2l0,0l12.9-0.1c1.1,0,2-0.9,2-2
		C135,65.7,134.1,64.9,133,64.9z"/>
	<path class="st0" d="M107.4,60.6h-4.1V32.3c0-0.8-0.5-1.5-1.2-1.8s-1.6-0.2-2.1,0.3C87.2,42,70.8,48.2,53.9,48.2h-20
		C23.5,48.2,15,56.7,15,67.1v1.4c0,10.4,8.5,18.9,18.9,18.9c0.2,0,0.4,0,0.6-0.1h7v23c0,2.5,1,4.8,2.7,6.6c1.7,1.7,4.1,2.7,6.5,2.7
		c0,0,0,0,0.1,0c5.1,0,9.3-4.2,9.3-9.4V93.3c0-1.1-0.9-2-2-2s-2,0.9-2,2v16.9c0,3-2.4,5.4-5.3,5.4c-1.4,0-2.7-0.5-3.7-1.5
		s-1.6-2.3-1.6-3.8v-23h8.9c16.7,0,32.9,5.9,45.6,16.6c0.4,0.3,0.8,0.5,1.3,0.5c0.3,0,0.6-0.1,0.8-0.2c0.7-0.3,1.2-1,1.2-1.8V74h4.2
		c3.7,0,6.7-3,6.7-6.7c0-1.8-0.7-3.5-2-4.7C110.9,61.3,109.2,60.6,107.4,60.6z M19,68.5v-1.4c0-7.5,5.6-13.8,12.9-14.8v30.9
		C24.6,82.3,19,76,19,68.5z M54.4,83.3H35.9V52.2h18c16.5,0,32.5-5.5,45.4-15.6v26l0,0V72l0,0v26.2C86.4,88.6,70.6,83.3,54.4,83.3z
		 M107.4,70h-4.1v-5.4h4.2c0.7,0,1.4,0.3,1.9,0.8s0.8,1.2,0.8,1.9C110.1,68.8,108.9,70,107.4,70z"/>
</g>
</svg>
