<?xml version="1.0" encoding="utf-8"?>
<!-- Generator: Adobe Illustrator 21.0.0, SVG Export Plug-In . SVG Version: 6.00 Build 0)  -->
<svg version="1.1" id="Layer_1" xmlns="http://www.w3.org/2000/svg" xmlns:xlink="http://www.w3.org/1999/xlink" x="0px" y="0px"
	 viewBox="0 0 100 125" style="enable-background:new 0 0 100 125;" xml:space="preserve">
<path d="M83.3,95.4c-0.9,0-1.8-0.3-2.4-1l-44-44l44-44c1.3-1.3,3.5-1.3,4.9,0c1.3,1.3,1.3,3.5,0,4.9L46.6,50.4l39.2,39.2
	c1.3,1.3,1.3,3.5,0,4.9C85.1,95.1,84.2,95.4,83.3,95.4z"/>
<path d="M60.4,95.4c-0.9,0-1.8-0.3-2.4-1l-44-44l44-44c1.3-1.3,3.5-1.3,4.9,0c1.3,1.3,1.3,3.5,0,4.9L23.6,50.4l39.2,39.2
	c1.3,1.3,1.3,3.5,0,4.9C62.1,95.1,61.3,95.4,60.4,95.4z"/>
</svg>
