<?xml version="1.0" encoding="utf-8"?>
<!-- Generator: Adobe Illustrator 21.0.0, SVG Export Plug-In . SVG Version: 6.00 Build 0)  -->
<svg version="1.1" id="Layer_1" xmlns="http://www.w3.org/2000/svg" xmlns:xlink="http://www.w3.org/1999/xlink" x="0px" y="0px"
	 viewBox="0 0 100 125" style="enable-background:new 0 0 100 125;" xml:space="preserve">
<path d="M17,95.4c-0.9,0-1.8-0.3-2.4-1c-1.3-1.3-1.3-3.5,0-4.9l39.1-39.1L14.6,11.3c-1.3-1.3-1.3-3.5,0-4.9c1.3-1.3,3.5-1.3,4.9,0
	l44,44l-44,44C18.8,95.1,17.9,95.4,17,95.4z"/>
<path d="M40,95.4c-0.9,0-1.8-0.3-2.4-1c-1.3-1.3-1.3-3.5,0-4.9l39.1-39.1L37.5,11.3c-1.3-1.3-1.3-3.5,0-4.9c1.3-1.3,3.5-1.3,4.9,0
	l44,44l-44,44C41.7,95.1,40.8,95.4,40,95.4z"/>
</svg>
